<svg width="22" height="22" viewBox="0 0 22 22" fill="none" xmlns="http://www.w3.org/2000/svg">
<rect width="22" height="22" fill="#F5F5F5"/>
<g id="Proflaktik targ&#39;ibot qo&#39;shish">
<rect x="-1205" y="-37" width="1440" height="3143" rx="20" fill="#F8FAFC"/>
<g id="2">
<g id="inbox">
<rect x="-17.5" y="-8.5" width="162" height="39" rx="7.5" stroke="#E2E8F0"/>
<g id="Frame 34043">
<g id="Location">
<g id="Group 33488">
<path id="Exclude" fill-rule="evenodd" clip-rule="evenodd" d="M14.5024 19.837C14.2009 20.0545 13.7987 20.0542 13.4971 19.8367L13.4949 19.8351L13.4901 19.8315L13.4737 19.8196C13.46 19.8095 13.4406 19.7952 13.416 19.7767C13.3666 19.7397 13.2961 19.6862 13.2075 19.6169C13.0303 19.4784 12.78 19.2768 12.4811 19.0192C11.8845 18.5052 11.0872 17.7626 10.2873 16.849C8.71822 15.0569 7 12.4496 7 9.52734C7 7.54526 7.72728 5.63576 9.03479 4.22102C10.3437 2.80473 12.1288 2 14 2C15.8712 2 17.6563 2.80473 18.9652 4.22102C20.2727 5.63576 21 7.54526 21 9.52734C21 12.4496 19.2818 15.0569 17.7127 16.849C16.9128 17.7626 16.1155 18.5052 15.5189 19.0192C15.22 19.2768 14.9697 19.4784 14.7925 19.6169C14.7039 19.6862 14.6334 19.7397 14.584 19.7767C14.5594 19.7952 14.54 19.8095 14.5263 19.8196L14.5099 19.8315L14.5051 19.8351L14.5035 19.8363L14.5024 19.837ZM11.375 9.20007C11.375 7.70888 12.5503 6.50004 14 6.50004C15.4497 6.50004 16.625 7.70888 16.625 9.20007C16.625 10.6912 15.4497 11.9001 14 11.9001C12.5503 11.9001 11.375 10.6912 11.375 9.20007Z" fill="#64748B"/>
</g>
</g>
</g>
</g>
</g>
</g>
</svg>
